# xmcd
#
# Track frame offsets:
#	150
#	17480
#	36470
#	54180
#	69755
#	88875
#	107102
#	119262
#	130540
#	146967
#	161020
#	178037
#	191760
#	209872
#	226635
#	243625
#
# Disc length: 3448 seconds
# Revision: 2
# Processed by: cddbd v1.5.2PL0 Copyright (c) Steve Scherf et al.
# Submitted via: dBpowerAMP V12.0
#
DISCID=e30d7610
DTITLE=Various Artist - Todays Most requested Country Love Songs 91
DYEAR=1991
DGENRE=Country
TTITLE0=Dan Seals - Love On Arrival
TTITLE1=Lionel Cartwright - In My Eyes
TTITLE2=Dolly Parton - Yellow Roses
TTITLE3=Michael Martin Murphy - A Long Line Of Love
TTITLE4=Vince Gill - When I Call Your Name
TTITLE5=Rita Macneil - I'll Accept The Rose
TTITLE6=Ricky Skaggs - Let It Be You
TTITLE7=Ricky Van Shelton - I've Cried My Last Tear For You
TTITLE8=Alan Jackson - Here In The Real World
TTITLE9=T Graham Brown - If You Could Only See Me Now
TTITLE10=Shendoah - Two Dozen Roses
TTITLE11=Ricky Van Shelton - I Meant Every Word He Said
TTITLE12=Vern Gosdin - That Just About Does It
TTITLE13=Reba Mcentire - Till Loves Come Again
TTITLE14=Steve Wariner - When I Could Come Home For You
TTITLE15=Doug Stone - I'd Be Better Off In A Pine Box
EXTD=
EXTT0=
EXTT1=
EXTT2=
EXTT3=
EXTT4=
EXTT5=
EXTT6=
EXTT7=
EXTT8=
EXTT9=
EXTT10=
EXTT11=
EXTT12=
EXTT13=
EXTT14=
EXTT15=
PLAYORDER=
